<?xml version="1.0" encoding="UTF-8"?>
<!DOCTYPE svg PUBLIC "-//W3C//DTD SVG 1.1//EN" "http://www.w3.org/Graphics/SVG/1.1/DTD/svg11.dtd">
<!-- Creator: CorelDRAW 2020 (64-Bit) -->
<svg xmlns="http://www.w3.org/2000/svg" xml:space="preserve" width="320px" height="85px" version="1.1" style="shape-rendering:geometricPrecision; text-rendering:geometricPrecision; image-rendering:optimizeQuality; fill-rule:evenodd; clip-rule:evenodd"
viewBox="0 0 320 85.32"
 xmlns:xlink="http://www.w3.org/1999/xlink"
 xmlns:xodm="http://www.corel.com/coreldraw/odm/2003">
 <defs>
  <style type="text/css">
   <![CDATA[
    .fil0 {fill:#6E44FF;fill-rule:nonzero}
   ]]>
  </style>
 </defs>
 <g id="Layer_x0020_1">
  <metadata id="CorelCorpID_0Corel-Layer"/>
  <path class="fil0" d="M9.942 19.661l-7.249 0 0 -13.468 2.497 0c2.65,0 4.38,-1.839 5.19,-5.519l12.461 0.132c1.621,2.343 3.176,3.679 4.687,3.964l22.184 -0.132 -0.065 76.628 -15.527 0 0 -36.573 -9.811 0c0.131,5.125 0.306,10.709 0.525,16.732 0.679,8.475 2.76,15.089 6.285,19.841l-21.374 0 0 -36.573 -9.745 0c3.964,-2.737 6.613,-5.234 7.949,-7.446 1.336,-2.234 1.993,-4.358 1.993,-6.417l0 -11.169zm24.44 0l-8.08 -0.131c-1.84,1.248 -2.76,3.811 -2.76,7.709 0,1.073 0.044,1.861 0.132,2.365l10.708 0 0 -9.943z"/>
  <path id="1" class="fil0" d="M87.818 19.661l-8.081 -0.131c-1.84,1.248 -2.759,3.811 -2.759,7.709 0,1.073 0.109,2.256 0.328,3.591l0 18.156c0.197,8.124 0.46,13.183 0.767,15.198 0.722,6.548 2.891,12.242 6.482,17.082l-21.374 0 0.197 -61.605 -7.249 0 0 -13.337c4.949,-0.437 7.446,-2.321 7.446,-5.65l12.702 0.132c1.62,2.343 3.175,3.679 4.687,3.964l22.184 -0.132 -0.066 76.628 -15.329 0 0.065 -61.605z"/>
  <path id="2" class="fil0" d="M133.173 19.53c-0.898,0.679 -1.358,8.388 -1.358,23.105 0,7.643 0.153,15.505 0.46,23.542l12.132 0.066 0 15.023 -34.843 0 0 -14.761 7.118 0 0.131 -46.844 -7.249 0 0 -13.468c4.315,0 6.877,-1.839 7.687,-5.519l12.462 0.132c1.62,2.343 3.175,3.679 4.686,3.964l10.008 -0.132 0 15.023 -11.234 -0.131zm5.058 10.074c-3.197,0 -4.796,-1.423 -4.796,-4.292 0,-2.475 1.511,-3.723 4.555,-3.723 3.11,0 4.687,1.445 4.687,4.358 0,2.453 -1.489,3.657 -4.446,3.657z"/>
  <path id="3" class="fil0" d="M166.154 19.661l0 61.605 -15.33 0 0 -76.299 20.213 0c0.329,0.087 0.548,0.131 0.635,0.131 0.417,0 0.854,-0.241 1.293,-0.701 0.372,-0.394 0.569,-0.985 0.569,-1.795l0 -1.928 13.205 0.132c0.132,2.124 0.417,3.329 0.833,3.591 0.394,0.263 1.182,0.373 2.387,0.373l0.701 0 22.469 -0.132 -0.132 76.628 -15.089 0 -0.131 -61.605 -8.081 -0.131c-1.84,1.248 -2.759,3.811 -2.759,7.709 0,1.073 0.109,2.256 0.328,3.591l0 18.156c0.175,8.124 0.416,13.183 0.767,15.198 0.678,6.548 2.825,12.242 6.416,17.082l-21.046 0 -0.131 -61.605 -7.117 0z"/>
  <path id="4" class="fil0" d="M226.794 19.661l-7.249 0 0 -13.468 2.497 0c2.65,0 4.38,-1.839 5.19,-5.519l12.462 0.132c1.62,2.343 3.175,3.679 4.686,3.964l22.184 -0.132 -0.065 76.628 -15.527 0 0 -36.573 -9.811 0c0.131,5.125 0.306,10.709 0.525,16.732 0.679,8.475 2.76,15.089 6.285,19.841l-21.374 0 0 -36.573 -9.745 0c3.964,-2.737 6.614,-5.234 7.949,-7.446 1.337,-2.234 1.993,-4.358 1.993,-6.417l0 -11.169zm24.44 0l-8.08 -0.131c-1.84,1.248 -2.76,3.811 -2.76,7.709 0,1.073 0.044,1.861 0.132,2.365l10.708 0 0 -9.943z"/>
  <path id="5" class="fil0" d="M294.465 35.955l8.672 -16.294 -8.672 0 0 16.294zm0 3.154l0 46.887 -14.366 0 0.131 -66.335 -7.249 0 0 -15.198c3.11,0 4.993,-0.109 5.65,-0.328 0.898,-0.263 1.599,-1.358 2.103,-3.329l12.329 0c1.664,2.343 3.241,3.679 4.753,3.964l22.184 -0.132 0 13.994 -12.111 20.477 -13.424 0z"/>
 </g>
</svg>
